<svg width="40" height="40" viewBox="0 0 40 40" fill="none" xmlns="http://www.w3.org/2000/svg">
<g clip-path="url(#clip0_21_2619)">
<path d="M34.4257 23.0749C35.7526 24.3704 37.153 25.5891 38.343 27.0152C38.8687 27.649 39.3664 28.3029 39.7472 29.0384C40.2867 30.0838 39.798 31.2343 38.8606 31.2967L33.0333 31.2941C31.5303 31.4187 30.3313 30.8137 29.3232 29.7861C28.5164 28.9643 27.7692 28.0897 26.9934 27.2402C26.6754 26.893 26.3425 26.5662 25.9448 26.308C25.1494 25.7916 24.4588 25.9497 24.0042 26.7794C23.5412 27.6233 23.4362 28.5577 23.3907 29.4981C23.3283 30.8703 22.9135 31.2311 21.5351 31.2939C18.5894 31.4328 15.7938 30.9872 13.1967 29.5012C10.907 28.1912 9.13155 26.3417 7.58608 24.248C4.57725 20.1712 2.27295 15.6914 0.202017 11.0861C-0.264155 10.0485 0.0767822 9.49156 1.22163 9.4718C3.12264 9.43484 5.02342 9.4375 6.9267 9.46914C7.69936 9.48047 8.21084 9.92359 8.5092 10.6535C9.53772 13.1825 10.7962 15.5886 12.3759 17.8188C12.7966 18.4126 13.2256 19.0064 13.8364 19.4243C14.5122 19.887 15.0267 19.7337 15.3446 18.9809C15.5463 18.5035 15.6347 17.9894 15.6801 17.4782C15.8308 15.7194 15.8506 13.9635 15.5865 12.2109C15.4243 11.117 14.8082 10.4089 13.7167 10.202C13.1598 10.0964 13.2426 9.88914 13.5123 9.57125C13.9807 9.02297 14.4212 8.68164 15.2994 8.68164H21.8852C22.922 8.88625 23.1523 9.35203 23.2942 10.3952L23.2998 17.7106C23.2885 18.1145 23.5015 19.313 24.229 19.5802C24.8112 19.7705 25.1949 19.3048 25.5443 18.9356C27.1211 17.2621 28.2465 15.2843 29.2519 13.2363C29.698 12.3358 30.0817 11.4006 30.4535 10.4662C30.729 9.77281 31.1612 9.43164 31.9423 9.44672L38.2807 9.45234C38.4687 9.45234 38.6588 9.45508 38.8408 9.48625C39.9089 9.66828 40.2016 10.1277 39.8717 11.1707C39.3519 12.807 38.3406 14.1707 37.3518 15.5406C36.2948 17.0032 35.1642 18.4158 34.116 19.887C33.1529 21.2308 33.2294 21.908 34.4257 23.0749Z" fill="#436EAB"/>
</g>
<defs>
<clipPath id="clip0_21_2619">
<rect width="40" height="40" fill="white"/>
</clipPath>
</defs>
</svg>
